# xmcd
#
# Track frame offsets:
#	150
#	16972
#	32440
#	48765
#	60611
#	78131
#	97191
#	116429
#	134846
#	149970
#	165826
#	180191
#
# Disc length: 2607 seconds
#
# Revision: 0
# Processed by: cddbd v1.5.1PL2 Copyright (c) Steve Scherf et al.
# Submitted via: audiograbber 1.83.01
#
DISCID=960a2d0c
DTITLE=памос йаккидгс - памос йаккидгс
DYEAR=2006
DGENRE=екажя каийа
TTITLE0=асе ле ломо лоу
TTITLE1=йяатгсе ле
TTITLE2=йи ас еяхоум пийяес
TTITLE3=то йако паиди
TTITLE4=паки циа сема
TTITLE5=ека лгм аяцеис
TTITLE6=пес пыс л' ацапас
TTITLE7=та йатажеяа
TTITLE8=циа лиа бяадиа лафи
TTITLE9=тяекаимолаи
TTITLE10=жаялайи
TTITLE11=ьелата
EXTD=
EXTT0=
EXTT1=
EXTT2=
EXTT3=
EXTT4=
EXTT5=
EXTT6=
EXTT7=
EXTT8=
EXTT9=
EXTT10=
EXTT11=
PLAYORDER=
